# xmcd
#
# Track frame offsets:
#	150
#	15068
#	30895
#	49075
#	67030
#	82640
#	96993
#	114180
#	130075
#	145463
#
# Disc length: 2198 seconds
#
# Revision: 1
# Processed by: cddbd v1.4PL0 Copyright (c) Steve Scherf et al.
# Submitted via: audiograbber 1.80.04
#
DISCID=6e08940a
DTITLE=Various Artist - Signatures II
DYEAR=1900
DGENRE=
TTITLE0=(Matraca Berg) - your baby ain't a baby
TTITLE1=(Peter McCann) - Heavy on my Heart 
TTITLE2=(Robert Byrne) - Have a Good Life
TTITLE3=Bill Rice - Sharon Rice)
TTITLE4=(Peter McCann) - Sound of a Broken Heart 
TTITLE5=(Harlan Howard) - That's Just Bar Talk 
TTITLE6=(Batraca Berg) - Lying to the Moon 
TTITLE7=(Robert Byrne) - Bless Your Heart
TTITLE8=(Bill Rice - Sharon Rice)
TTITLE9=(Harlan Howard) - Be Careful Who You Love 
EXTD=
EXTT0=
EXTT1=
EXTT2=
EXTT3=
EXTT4=
EXTT5=
EXTT6=
EXTT7=
EXTT8=
EXTT9=
PLAYORDER=
